<svg width="131" height="111" viewBox="0 0 131 111" fill="none" xmlns="http://www.w3.org/2000/svg">
<rect x="48.7036" y="80.8828" width="60.8826" height="42.5922" rx="9" transform="rotate(-45 48.7036 80.8828)" fill="#9B0316"/>
<rect y="13.0456" width="123.498" height="82.6222" rx="41.3111" fill="#D2001A"/>
<circle cx="36.5277" cy="53.9218" r="7.82736" fill="white"/>
<circle cx="61.7492" cy="53.9218" r="7.82736" fill="white"/>
<circle cx="86.9707" cy="53.9218" r="7.82736" fill="white"/>
<circle cx="109.583" cy="20.873" r="20.873" fill="#FFDE00"/>
<path d="M119.286 13.7624H117.742C117.526 13.7624 117.32 13.8618 117.188 14.0318L108.083 25.5655L103.718 20.0338C103.652 19.95 103.567 19.8822 103.471 19.8355C103.375 19.7889 103.27 19.7646 103.163 19.7644H101.62C101.472 19.7644 101.39 19.9345 101.481 20.0493L107.529 27.7119C107.812 28.0696 108.355 28.0696 108.64 27.7119L119.425 14.0451C119.515 13.9325 119.434 13.7624 119.286 13.7624Z" fill="white" stroke="white" stroke-width="4"/>
</svg>
